<?xml version="1.0" encoding="UTF-8" standalone="no"?><!DOCTYPE svg PUBLIC "-//W3C//DTD SVG 1.1//EN" "http://www.w3.org/Graphics/SVG/1.1/DTD/svg11.dtd"><svg width="100%" height="100%" viewBox="0 0 2048 512" version="1.1" xmlns="http://www.w3.org/2000/svg" xmlns:xlink="http://www.w3.org/1999/xlink" xml:space="preserve" xmlns:serif="http://www.serif.com/" style="fill-rule:evenodd;clip-rule:evenodd;stroke-linejoin:round;stroke-miterlimit:2;"><path d="M553.239,142.025l0,-122.747l-273.336,0l-273.358,473.446l142.538,0l202.044,-350.047l202.112,-0.652Z" style="fill:#fff;fill-rule:nonzero;"/><path d="M452.23,317.676l101,-0.292l0,-122.747l-171.729,0.562l-171.729,297.534l141.346,0l101.112,-175.057Z" style="fill:#fff;fill-rule:nonzero;"/><path d="M553.239,369.75l-70.797,0.225l-70.886,122.747l141.683,0l0,-122.972Z" style="fill:#fff;fill-rule:nonzero;"/><path d="M869.17,410.883c84.56,0 148.812,-67.626 148.812,-154.884c0,-87.259 -64.252,-154.884 -148.812,-154.884c-83.863,0 -148.812,67.626 -148.812,154.884c0,87.259 64.949,154.884 148.812,154.884m0,-398.377c140.693,0 248.912,106.195 248.912,243.492c0,137.298 -108.219,243.492 -248.912,243.492c-140.693,0 -248.912,-106.195 -248.912,-243.492c0,-137.298 108.219,-243.492 248.912,-243.492" style="fill:#fff;fill-rule:nonzero;"/><path d="M1237.829,347.983c7.421,41.943 37.872,68.323 90.61,68.323c47.363,0 78.465,-25.031 78.465,-55.481c0,-91.307 -256.356,-33.127 -256.356,-208.319c0,-79.815 76.441,-139.996 173.865,-139.996c100.1,0 167.029,54.784 178.543,131.878l-98.076,19.611c-7.421,-40.571 -37.22,-68.3 -83.863,-68.3c-41.943,0 -70.369,21.635 -70.369,51.411c0,87.236 256.356,29.079 256.356,211.018c0,81.164 -79.815,141.368 -181.287,141.368c-102.776,0 -173.798,-52.085 -185.965,-131.9l98.076,-19.611Z" style="fill:#fff;fill-rule:nonzero;"/><path d="M1682.871,304.014l140.693,0l-70.324,-177.194l-70.369,177.194Zm215.088,188.708l-40.571,-102.799l-208.296,0l-40.593,102.799l-98.076,0l192.082,-473.469l106.869,-0l192.082,473.469l-103.496,0Z" style="fill:#fff;fill-rule:nonzero;"/></svg>