<?xml version="1.0" encoding="UTF-8" standalone="no"?><!DOCTYPE svg PUBLIC "-//W3C//DTD SVG 1.1//EN" "http://www.w3.org/Graphics/SVG/1.1/DTD/svg11.dtd"><svg width="100%" height="100%" viewBox="0 0 2481 414" version="1.1" xmlns="http://www.w3.org/2000/svg" xmlns:xlink="http://www.w3.org/1999/xlink" xml:space="preserve" xmlns:serif="http://www.serif.com/" style="fill-rule:evenodd;clip-rule:evenodd;stroke-linejoin:round;stroke-miterlimit:2;"><g><path d="M1518.273,0l-201.766,201.791l203.595,203.615l-7.977,7.978l50.899,0l7.977,-7.978l-203.595,-203.615l201.766,-201.791l-50.899,0Zm-203.59,0l-74.527,74.529l-74.522,-74.529l-50.899,0l125.42,125.438l125.425,-125.438l-50.899,0Zm-403.541,0l201.766,201.791l-203.595,203.615l7.977,7.978l50.899,0l-7.977,-7.973l203.6,-203.62l-201.776,-201.791l-50.894,0Zm193.789,413.385l50.899,0l84.328,-84.336l84.328,84.336l50.899,0l-135.226,-135.24l-135.226,135.24Z" style="fill-rule:nonzero;"/><path d="M1416.475,0l-176.314,176.337l-176.324,-176.337l-29.105,0l-10.895,10.896l190.866,190.896l-190.866,190.891l20.701,20.703l9.492,0l186.13,-186.144l186.12,186.144l9.497,0l20.696,-20.703l-190.866,-190.891l190.866,-190.896l-10.895,-10.896l-29.105,0Z" style="fill-rule:nonzero;"/><path d="M1620.071,0l-201.771,201.791l203.604,203.62l-7.977,7.973l50.894,0l7.977,-7.978l-203.595,-203.615l201.771,-201.791l-50.904,0Zm-403.532,0l23.618,23.625l23.623,-23.625l-47.241,0Zm-407.199,0l201.771,201.791l-203.595,203.615l7.977,7.978l50.894,0l-7.977,-7.973l203.6,-203.62l-201.771,-201.791l-50.899,0Zm397.388,413.385l66.853,0l-33.429,-33.432l-33.424,33.432Z" style="fill-rule:nonzero;"/><path d="M1721.868,0l-201.771,201.791l101.802,101.808l101.797,101.808l-7.982,7.978l66.858,0l-7.977,-7.978l-25.447,-25.454l-76.35,-76.353l203.595,-203.62l-99.968,-99.979l-54.556,0Zm-150.867,201.791l178.148,-178.166l76.35,76.353l-178.148,178.166l-76.35,-76.353Zm-863.458,-201.791l23.623,23.625l76.35,76.353l-203.595,203.62l101.797,101.813l7.972,7.973l50.899,0l-7.977,-7.973l203.6,-203.62l-201.771,-201.791l-50.899,0Zm-52.728,303.599l178.148,-178.166l76.35,76.358l-178.148,178.161l-76.35,-76.353Zm-354.467,-303.599l23.623,23.625l23.618,-23.625l-47.241,0Zm2135.94,99.979l54.728,54.734l0,-50.899l-3.829,-3.835l3.829,-3.83l0,-50.899l-54.728,54.729Zm-2446.99,199.791l3.829,3.83l-3.829,3.83l0,50.904l54.728,-54.734l-54.728,-54.738l0,50.909Zm2133.616,113.615l66.858,0l-33.429,-33.432l-33.429,33.432Z" style="fill-rule:nonzero;"/><path d="M500.295,0l-176.319,176.337l-176.324,-176.337l-54.551,0l-99.973,99.979l203.595,203.62l-109.77,109.786l50.899,0l109.775,-109.786l-203.595,-203.62l76.346,-76.353l203.6,203.615l203.595,-203.615l76.35,76.353l-203.6,203.62l109.775,109.786l50.904,0l-109.78,-109.786l203.595,-203.62l-99.968,-99.979l-54.551,0Zm-209.748,413.385l66.853,0l-33.424,-33.432l-33.429,33.432Z" style="fill-rule:nonzero;"/><path d="M107.652,112.704l190.876,190.896l-109.78,109.786l50.899,0l84.328,-84.331l84.323,84.331l50.899,0l-109.775,-109.786l190.876,-190.891l-25.457,-25.449l-190.866,190.886l-190.876,-190.891l-25.447,25.449Z" style="fill-rule:nonzero;"/><path d="M605.746,0l99.968,99.979l-203.595,203.62l109.78,109.786l50.894,0l-109.775,-109.786l203.595,-203.62l-99.968,-99.979l-50.899,0Zm-207.252,0l-74.522,74.529l-74.522,-74.529l-50.894,0l125.415,125.433l125.42,-125.433l-50.899,0Zm-407.189,0l-2.005,2.006l0,50.904l52.904,-52.909l-50.899,0Zm-2.005,197.957l105.627,105.642l-105.627,105.637l0,4.148l46.751,0l109.78,-109.786l-156.53,-156.546l0,50.904Z" style="fill-rule:nonzero;"/><path d="M2332.66,0l-99.968,99.979l203.595,203.62l-76.35,76.353l-203.595,-203.615l-203.6,203.615l-76.346,-76.353l203.6,-203.62l-99.973,-99.979l-50.899,0l99.968,99.979l-203.595,203.62l109.775,109.786l34.944,0l186.125,-186.144l186.125,186.144l34.949,0l109.77,-109.786l-203.6,-203.62l99.973,-99.979l-50.899,0Zm-199.942,0l23.623,23.625l23.623,-23.625l-47.246,0Z" style="fill-rule:nonzero;"/><path d="M2230.862,0l-74.522,74.529l-74.522,-74.529l-50.899,0l99.973,99.979l-190.876,190.896l25.452,25.449l190.871,-190.891l190.871,190.891l25.452,-25.449l-190.871,-190.896l99.973,-99.979l-50.904,0Z" style="fill-rule:nonzero;"/><path d="M2434.458,0l-99.968,99.979l156.525,156.546l0,-50.904l-105.627,-105.642l99.973,-99.979l-50.904,0Zm-607.136,0l99.973,99.979l-203.595,203.62l109.775,109.786l50.899,0l-109.775,-109.786l203.6,-203.62l-99.973,-99.979l-50.904,0Zm193.793,413.385l50.904,0l84.323,-84.331l84.323,84.331l50.899,0l-135.221,-135.24l-135.226,135.24Zm407.189,0l50.904,0l11.807,-11.808l0,-50.909l-62.71,62.717Z" style="fill-rule:nonzero;"/><path d="M1761.874,112.707l-25.449,-25.452l-101.8,101.81l25.449,25.452l101.8,-101.81Z"/><path d="M718.44,290.874l25.449,25.452l101.8,-101.81l-25.449,-25.452l-101.8,101.81Z"/></g></svg>