<?xml version="1.0" encoding="UTF-8" standalone="no"?><!DOCTYPE svg PUBLIC "-//W3C//DTD SVG 1.1//EN" "http://www.w3.org/Graphics/SVG/1.1/DTD/svg11.dtd"><svg width="100%" height="100%" viewBox="0 0 2481 414" version="1.1" xmlns="http://www.w3.org/2000/svg" xmlns:xlink="http://www.w3.org/1999/xlink" xml:space="preserve" xmlns:serif="http://www.serif.com/" style="fill-rule:evenodd;clip-rule:evenodd;stroke-linejoin:round;stroke-miterlimit:2;"><g><path d="M-10.703,0l0,62.153l62.146,-62.153l-62.146,0Z" style="fill-rule:nonzero;"/><path d="M99.845,0l-110.549,110.561l0,63.03l173.573,-173.591l-63.024,0Z" style="fill-rule:nonzero;"/><path d="M211.272,0l-221.976,221.999l0,63.026l285.001,-285.025l-63.024,0Z" style="fill-rule:nonzero;"/><path d="M643.916,0l-413.343,413.385l63.029,0l413.343,-413.385l-63.029,0Z" style="fill-rule:nonzero;"/><path d="M755.338,0l-413.343,413.385l63.029,0l413.343,-413.385l-63.029,0Z" style="fill-rule:nonzero;"/><path d="M866.769,0l-413.343,413.385l63.024,0l413.343,-413.385l-63.024,0Z" style="fill-rule:nonzero;"/><path d="M1301.329,0l-413.343,413.385l63.029,0l413.343,-413.385l-63.029,0Z" style="fill-rule:nonzero;"/><path d="M1412.751,0l-413.343,413.385l63.029,0l413.343,-413.385l-63.029,0Z" style="fill-rule:nonzero;"/><path d="M1524.182,0l-413.343,413.385l63.024,0l413.343,-413.385l-63.024,0Z" style="fill-rule:nonzero;"/><path d="M1958.742,0l-413.343,413.385l63.029,0l413.343,-413.385l-63.029,0Z" style="fill-rule:nonzero;"/><path d="M2070.164,0l-413.343,413.385l63.029,0l413.343,-413.385l-63.029,0Z" style="fill-rule:nonzero;"/><path d="M2181.595,0l-413.343,413.385l63.024,0l413.343,-413.385l-63.024,0Z" style="fill-rule:nonzero;"/><path d="M2200.897,413.385l63.029,0l227.09,-227.118l0,-63.03l-290.119,290.149Z" style="fill-rule:nonzero;"/><path d="M2312.323,413.385l63.024,0l115.668,-115.68l0,-63.03l-178.692,178.71Z" style="fill-rule:nonzero;"/><path d="M2423.75,413.385l63.024,0l4.246,-4.246l0,-63.03l-67.27,67.277Z" style="fill-rule:nonzero;"/><g><clipPath id="_clip1"><rect x="-10.701" y="0" width="2501.721" height="413.385" clip-rule="nonzero"/></clipPath><g clip-path="url(#_clip1)"><path d="M3274.549,-2.894l-1181.114,1181.235l63.024,0l1181.114,-1181.235l-63.024,0Z" style="fill-rule:nonzero;"/><path d="M3385.974,-2.894l-1181.114,1181.235l63.024,0l1181.114,-1181.235l-63.024,0Z" style="fill-rule:nonzero;"/><path d="M3497.399,-2.894l-1181.114,1181.235l63.024,0l1181.114,-1181.235l-63.024,0Z" style="fill-rule:nonzero;"/><path d="M954.189,14.777l-31.512,31.515l144.856,144.871l31.512,-31.515l-144.856,-144.871Z"/><path d="M904.049,64.924l-31.514,31.518l144.854,144.869l31.514,-31.518l-144.854,-144.869Z"/><path d="M853.908,115.071l-31.513,31.515l144.852,144.871l31.513,-31.515l-144.852,-144.871Z"/><path d="M1611.601,14.777l-31.51,31.512l144.854,144.874l31.51,-31.512l-144.854,-144.874Z"/><path d="M1561.463,64.924l-31.514,31.518l144.854,144.869l31.514,-31.518l-144.854,-144.869Z"/><path d="M1511.321,115.071l-31.513,31.515l144.852,144.871l31.513,-31.515l-144.852,-144.871Z"/><path d="M2269.014,14.777l-31.51,31.512l144.854,144.874l31.51,-31.512l-144.854,-144.874Z"/><path d="M2218.876,64.924l-31.514,31.518l144.854,144.869l31.514,-31.518l-144.854,-144.869Z"/><path d="M2168.734,115.071l-31.513,31.515l144.852,144.871l31.513,-31.515l-144.852,-144.871Z"/><path d="M296.775,14.777l-31.512,31.515l144.856,144.871l31.512,-31.515l-144.856,-144.871Z"/><path d="M246.637,64.924l-31.516,31.521l144.856,144.866l31.516,-31.521l-144.856,-144.866Z"/><path d="M196.495,115.071l-31.513,31.515l144.852,144.871l31.513,-31.515l-144.852,-144.871Z"/></g></g></g></svg>