<?xml version="1.0" encoding="UTF-8" standalone="no"?><!DOCTYPE svg PUBLIC "-//W3C//DTD SVG 1.1//EN" "http://www.w3.org/Graphics/SVG/1.1/DTD/svg11.dtd"><svg width="100%" height="100%" viewBox="0 0 2481 414" version="1.1" xmlns="http://www.w3.org/2000/svg" xmlns:xlink="http://www.w3.org/1999/xlink" xml:space="preserve" xmlns:serif="http://www.serif.com/" style="fill-rule:evenodd;clip-rule:evenodd;stroke-linejoin:round;stroke-miterlimit:2;"><g><g><clipPath id="_clip1"><rect x="-10.702" y="0" width="2501.721" height="413.385" clip-rule="nonzero"/></clipPath><g clip-path="url(#_clip1)"><path d="M14.451,-410.529l-1234.317,1234.443l65.863,-0l1234.317,-1234.443l-65.863,0Z" style="fill-rule:nonzero;"/><path d="M130.894,-410.529l-1234.317,1234.443l65.863,-0l1234.322,-1234.443l-65.868,0Z" style="fill-rule:nonzero;"/><path d="M247.339,-410.529l-1234.317,1234.443l65.863,-0l1234.317,-1234.443l-65.863,0Z" style="fill-rule:nonzero;"/></g></g><path d="M288.986,0l-299.69,299.721l-0,65.87l365.553,-365.59l-65.863,-0Z" style="fill-rule:nonzero;"/><path d="M405.43,0l-413.343,413.385l65.868,0l413.338,-413.385l-65.863,0Z" style="fill-rule:nonzero;"/><path d="M521.877,0l-413.343,413.385l65.863,0l413.343,-413.385l-65.863,0Z" style="fill-rule:nonzero;"/><path d="M974.012,0l-413.343,413.385l65.863,0l413.343,-413.385l-65.863,0Z" style="fill-rule:nonzero;"/><path d="M1090.453,0l-413.343,413.385l65.868,0l413.343,-413.385l-65.868,0Z" style="fill-rule:nonzero;"/><path d="M1206.9,0l-413.343,413.385l65.863,0l413.343,-413.385l-65.863,0Z" style="fill-rule:nonzero;"/><path d="M1661.038,0l-413.343,413.385l65.863,0l413.343,-413.385l-65.863,0Z" style="fill-rule:nonzero;"/><path d="M1777.48,0l-413.343,413.385l65.868,0l413.343,-413.385l-65.868,0Z" style="fill-rule:nonzero;"/><path d="M1893.927,0l-413.343,413.385l65.863,0l413.343,-413.385l-65.863,0Z" style="fill-rule:nonzero;"/><path d="M2348.063,0l-413.343,413.385l65.863,0l413.343,-413.385l-65.863,0Z" style="fill-rule:nonzero;"/><path d="M2464.506,0l-413.343,413.385l65.868,0l373.986,-374.029l0,-39.356l-26.511,0Z" style="fill-rule:nonzero;"/><g><clipPath id="_clip2"><rect x="-10.702" y="0" width="2501.721" height="413.385" clip-rule="nonzero"/></clipPath><g clip-path="url(#_clip2)"><path d="M2167.609,413.385l65.863,0l257.543,-257.57l0,-65.875l-323.406,323.444Z" style="fill-rule:nonzero;"/><path d="M3443.575,-410.529l-1234.317,1234.443l65.863,-0l1234.317,-1234.443l-65.863,0Z" style="fill-rule:nonzero;"/><path d="M3560.018,-410.529l-1234.317,1234.443l65.868,-0l1234.317,-1234.443l-65.868,0Z" style="fill-rule:nonzero;"/><path d="M3676.466,-410.529l-1234.317,1234.443l65.863,-0l1234.317,-1234.443l-65.863,0Z" style="fill-rule:nonzero;"/></g></g></g></svg>