<?xml version="1.0" encoding="UTF-8" standalone="no"?><!DOCTYPE svg PUBLIC "-//W3C//DTD SVG 1.1//EN" "http://www.w3.org/Graphics/SVG/1.1/DTD/svg11.dtd"><svg width="100%" height="100%" viewBox="0 0 2481 414" version="1.1" xmlns="http://www.w3.org/2000/svg" xmlns:xlink="http://www.w3.org/1999/xlink" xml:space="preserve" xmlns:serif="http://www.serif.com/" style="fill-rule:evenodd;clip-rule:evenodd;stroke-linejoin:round;stroke-miterlimit:2;"><g><path d="M1743.582,0l-413.342,413.384l46.824,0l413.347,-413.384l-46.829,0Z" style="fill-rule:nonzero;"/><path d="M1659.467,0l-408.287,408.328l0,5.056l41.769,0l413.347,-413.384l-46.829,0Z" style="fill-rule:nonzero;"/><path d="M1575.351,0l-324.17,324.203l0,46.829l370.994,-371.032l-46.824,0Z" style="fill-rule:nonzero;"/><path d="M1491.235,0l-240.053,240.078l0,46.829l286.877,-286.907l-46.824,0Z" style="fill-rule:nonzero;"/><path d="M1407.116,0l-155.937,155.948l0,46.834l202.766,-202.781l-46.829,0Z" style="fill-rule:nonzero;"/><path d="M1323,0l-71.82,71.822l0,46.834l118.649,-118.656l-46.829,0Z" style="fill-rule:nonzero;"/><path d="M1251.182,0l0,34.531l34.532,-34.531l-34.532,0Z" style="fill-rule:nonzero;"/><path d="M2401.391,0l-413.337,413.384l46.824,-0l413.342,-413.384l-46.829,0Z" style="fill-rule:nonzero;"/><path d="M2317.276,0l-408.605,408.647l0,4.737l42.093,0l413.342,-413.384l-46.829,0Z" style="fill-rule:nonzero;"/><path d="M2233.161,0l-324.489,324.522l0,46.834l371.318,-371.356l-46.829,0Z" style="fill-rule:nonzero;"/><path d="M2149.046,0l-240.372,240.401l0,46.829l287.196,-287.23l-46.824,0Z" style="fill-rule:nonzero;"/><path d="M2064.931,0l-156.26,156.276l0,46.829l203.084,-203.105l-46.824,0Z" style="fill-rule:nonzero;"/><path d="M1980.815,0l-72.143,72.151l0,46.829l118.968,-118.98l-46.824,0Z" style="fill-rule:nonzero;"/><path d="M1908.672,0l0,34.854l34.851,-34.854l-34.851,0Z" style="fill-rule:nonzero;"/><path d="M2487.337,0l-20.039,20.036l34.414,34.418l0,-46.829l-7.624,-7.625l-6.751,0Z" style="fill-rule:nonzero;"/><path d="M2425.245,62.098l76.468,76.481l0,-46.829l-53.056,-53.061l-23.412,23.41Z" style="fill-rule:nonzero;"/><path d="M2383.183,104.16l118.531,118.543l0,-46.829l-95.119,-95.124l-23.412,23.41Z" style="fill-rule:nonzero;"/><path d="M2341.13,146.222l160.585,160.606l0,-46.829l-137.173,-137.191l-23.412,23.414Z" style="fill-rule:nonzero;"/><path d="M2299.067,188.289l202.648,202.669l0,-46.834l-179.236,-179.249l-23.412,23.414Z" style="fill-rule:nonzero;"/><path d="M2257.009,230.351l183.016,183.035l46.824,0l-206.428,-206.449l-23.412,23.414Z" style="fill-rule:nonzero;"/><path d="M1598.231,229.137l184.227,184.246l46.829,0l-207.644,-207.66l-23.412,23.414Z" style="fill-rule:nonzero;"/><path d="M1640.289,187.075l226.285,226.309l42.093,0l0,-4.737l-244.966,-244.986l-23.412,23.414Z" style="fill-rule:nonzero;"/><path d="M1908.667,371.355l0,-46.829l-202.908,-202.928l-23.412,23.414l226.32,226.343Z" style="fill-rule:nonzero;"/><path d="M1908.667,287.23l0,-46.829l-160.849,-160.866l-23.412,23.414l184.261,184.28Z" style="fill-rule:nonzero;"/><path d="M1908.667,203.106l0,-46.829l-118.791,-118.803l-23.412,23.414l142.203,142.218Z" style="fill-rule:nonzero;"/><path d="M1827.346,0l-18.823,18.825l100.145,100.155l0,-46.829l-72.143,-72.151l-9.179,0Z" style="fill-rule:nonzero;"/><path d="M1873.816,0l34.851,34.854l0,-34.854l-34.851,0Z" style="fill-rule:nonzero;"/><path d="M428.872,0l-413.342,413.384l46.824,0l413.347,-413.384l-46.829,0Z" style="fill-rule:nonzero;"/><path d="M344.756,0l-344.753,344.788l0,46.829l391.582,-391.617l-46.829,0Z" style="fill-rule:nonzero;"/><path d="M260.64,0l-260.636,260.668l0,46.824l307.46,-307.492l-46.824,-0Z" style="fill-rule:nonzero;"/><path d="M176.524,0l-176.524,176.542l0,46.829l223.349,-223.371l-46.824,0Z" style="fill-rule:nonzero;"/><path d="M92.405,0l-92.403,92.412l0,46.834l139.232,-139.246l-46.829,0Z" style="fill-rule:nonzero;"/><path d="M8.289,0l-8.286,8.287l0,46.834l55.115,-55.121l-46.829,0Z" style="fill-rule:nonzero;"/><path d="M1086.679,0l-413.342,413.384l46.829,0l413.342,-413.384l-46.829,0Z" style="fill-rule:nonzero;"/><path d="M1002.564,0l-408.811,408.853l0,4.531l42.299,0l413.342,-413.384l-46.829,0Z" style="fill-rule:nonzero;"/><path d="M918.448,0l-324.695,324.728l-0,46.829l371.519,-371.557l-46.824,0Z" style="fill-rule:nonzero;"/><path d="M834.332,0l-240.578,240.602l0,46.829l287.402,-287.431l-46.824,0Z" style="fill-rule:nonzero;"/><path d="M750.216,0l-156.461,156.477l0,46.829l203.285,-203.306l-46.824,0Z" style="fill-rule:nonzero;"/><path d="M666.101,0l-72.344,72.352l0,46.829l119.169,-119.181l-46.824,0Z" style="fill-rule:nonzero;"/><path d="M593.754,0l0,35.06l35.057,-35.06l-35.057,0Z" style="fill-rule:nonzero;"/><path d="M1216.264,0l34.851,34.854l0,-34.854l-34.851,0Z" style="fill-rule:nonzero;"/><path d="M1172.622,0l-20.235,20.237l98.728,98.743l0,-46.829l-72.139,-72.151l-6.354,0Z" style="fill-rule:nonzero;"/><path d="M1133.742,38.887l-23.412,23.414l140.786,140.805l0,-46.834l-117.374,-117.386Z" style="fill-rule:nonzero;"/><path d="M1091.683,80.949l-23.412,23.414l182.844,182.868l0,-46.834l-159.432,-159.449Z" style="fill-rule:nonzero;"/><path d="M1049.626,123.011l-23.412,23.414l224.903,224.931l0,-46.834l-201.491,-201.511Z" style="fill-rule:nonzero;"/><path d="M984.154,188.488l224.869,224.896l42.093,0l0,-4.737l-243.549,-243.569l-23.412,23.41Z" style="fill-rule:nonzero;"/><path d="M942.096,230.55l182.815,182.834l46.824,0l-206.227,-206.248l-23.412,23.414Z" style="fill-rule:nonzero;"/><path d="M283.317,229.34l184.026,184.045l46.824,0l-207.438,-207.459l-23.412,23.414Z" style="fill-rule:nonzero;"/><path d="M325.375,187.278l226.084,226.108l42.294,0l0,-4.536l-244.966,-244.986l-23.412,23.414Z" style="fill-rule:nonzero;"/><path d="M593.752,371.558l0,-46.829l-202.908,-202.928l-23.412,23.414l226.32,226.343Z" style="fill-rule:nonzero;"/><path d="M593.752,287.433l0,-46.829l-160.849,-160.866l-23.412,23.414l184.261,184.28Z" style="fill-rule:nonzero;"/><path d="M593.752,203.308l0,-46.829l-118.791,-118.803l-23.412,23.414l142.203,142.218Z" style="fill-rule:nonzero;"/><path d="M512.634,0l-19.029,19.031l100.15,100.15l0,-46.829l-72.349,-72.352l-8.772,0Z" style="fill-rule:nonzero;"/><path d="M558.696,0l35.057,35.06l0,-35.06l-35.057,0Z" style="fill-rule:nonzero;"/><path d="M2213.51,282.751l-23.412,23.414l47.496,47.506l0,-46.834l-24.084,-24.086Z" style="fill-rule:nonzero;"/><path d="M2148.037,348.227l65.152,65.158l24.407,0l0,-22.419l-66.147,-66.149l-23.412,23.41Z" style="fill-rule:nonzero;"/><path d="M2105.979,390.29l23.093,23.096l46.824,0l-46.505,-46.505l-23.412,23.41Z" style="fill-rule:nonzero;"/><path d="M2082.89,413.384l8.889,0l-4.447,-4.443l-4.442,4.443Z" style="fill-rule:nonzero;"/><path d="M2261.536,282.894l23.412,23.414l-47.354,47.358l0,-46.829l23.942,-23.944Z" style="fill-rule:nonzero;"/><path d="M2237.593,390.965l0,22.419l24.407,0l65.01,-65.011l-23.417,-23.414l-66,66.007Z" style="fill-rule:nonzero;"/><path d="M2299.292,413.384l46.829,0l22.946,-22.949l-23.417,-23.414l-46.358,46.363Z" style="fill-rule:nonzero;"/><path d="M2383.408,413.384l8.605,0l-4.3,-4.305l-4.305,4.305Z" style="fill-rule:nonzero;"/><path d="M1551.038,276.929l-23.412,23.414l47.496,47.506l0,-46.834l-24.084,-24.086Z" style="fill-rule:nonzero;"/><path d="M1485.565,342.406l70.972,70.979l18.587,0l0,-28.24l-66.147,-66.154l-23.412,23.414Z" style="fill-rule:nonzero;"/><path d="M1443.507,384.469l28.913,28.916l46.824,0l-52.325,-52.331l-23.412,23.414Z" style="fill-rule:nonzero;"/><path d="M1414.595,413.384l20.539,0l-10.272,-10.268l-10.267,10.268Z" style="fill-rule:nonzero;"/><path d="M1599.065,277.073l23.412,23.414l-47.354,47.358l0,-46.829l23.942,-23.944Z" style="fill-rule:nonzero;"/><path d="M1575.121,385.144l0,28.24l18.587,0l70.829,-70.832l-23.417,-23.414l-66,66.007Z" style="fill-rule:nonzero;"/><path d="M1631,413.384l46.829,0l28.766,-28.769l-23.412,-23.419l-52.183,52.188Z" style="fill-rule:nonzero;"/><path d="M1715.116,413.384l20.245,0l-10.12,-10.126l-10.125,10.126Z" style="fill-rule:nonzero;"/><path d="M852.42,413.384l46.829,0l25.815,-25.817l0,-46.834l-72.644,72.651Z" style="fill-rule:nonzero;"/><path d="M768.304,413.384l46.824,0l109.936,-109.947l0,-46.829l-156.76,156.776Z" style="fill-rule:nonzero;"/><path d="M925.063,387.567l25.815,25.817l46.829,0l-72.644,-72.651l0,46.834Z" style="fill-rule:nonzero;"/><path d="M925.063,256.609l0,46.829l109.936,109.947l46.824,0l-156.76,-156.776Z" style="fill-rule:nonzero;"/><path d="M195.768,413.384l46.829,0l19.995,-19.997l0,-46.834l-66.824,66.83Z" style="fill-rule:nonzero;"/><path d="M111.653,413.384l46.829,0l104.111,-104.122l0,-46.829l-150.94,150.951Z" style="fill-rule:nonzero;"/><path d="M262.591,393.388l19.995,19.997l46.829,0l-66.824,-66.83l0,46.834Z" style="fill-rule:nonzero;"/><path d="M262.591,262.43l0,46.834l104.111,104.122l46.829,0l-150.94,-150.956Z" style="fill-rule:nonzero;"/></g></svg>